<svg xmlns="http://www.w3.org/2000/svg" width="14" height="15" fill="none"><path fill="#777E91" fill-rule="evenodd" d="M.2929 1.291c.3905-.3906 1.0237-.3906 1.4142 0L7 6.5837l5.2929-5.2929c.3905-.3905 1.0237-.3905 1.4142 0 .3905.3906.3905 1.0237 0 1.4143L8.4142 7.998l5.2929 5.2929c.3905.3906.3905 1.0237 0 1.4143-.3905.3905-1.0237.3905-1.4142 0L7 9.4122l-5.2929 5.293c-.3905.3905-1.0237.3905-1.4142 0-.3905-.3906-.3905-1.0237 0-1.4143L5.5858 7.998.2928 2.7053c-.3904-.3906-.3904-1.0237 0-1.4143Z" clip-rule="evenodd"/></svg>